<svg xmlns="http://www.w3.org/2000/svg" viewBox="0 0 512 512">
  <!-- Background -->
  <rect width="512" height="512" rx="96" fill="#ffffff"/>
  <!-- Calendar grid lines -->
  <rect x="72" y="72" width="368" height="368" rx="24" fill="#f0ede8"/>
  <!-- Header bar -->
  <rect x="72" y="72" width="368" height="88" rx="24" fill="#3b82f6"/>
  <rect x="72" y="128" width="368" height="32" fill="#3b82f6"/>
  <!-- Grid cells - row 1 -->
  <rect x="96"  y="192" width="72" height="40" rx="6" fill="#10b981" opacity="0.85"/>
  <rect x="184" y="192" width="72" height="40" rx="6" fill="#f59e0b" opacity="0.85"/>
  <rect x="272" y="192" width="72" height="40" rx="6" fill="#8b5cf6" opacity="0.85"/>
  <rect x="360" y="192" width="72" height="40" rx="6" fill="#3b82f6" opacity="0.85"/>
  <!-- Grid cells - row 2 -->
  <rect x="96"  y="248" width="72" height="40" rx="6" fill="#f59e0b" opacity="0.85"/>
  <rect x="184" y="248" width="72" height="40" rx="6" fill="#10b981" opacity="0.85"/>
  <rect x="272" y="248" width="160" height="40" rx="6" fill="#ec4899" opacity="0.85"/>
  <!-- Grid cells - row 3 -->
  <rect x="96"  y="304" width="160" height="40" rx="6" fill="#8b5cf6" opacity="0.85"/>
  <rect x="272" y="304" width="72" height="40" rx="6" fill="#f59e0b" opacity="0.85"/>
  <rect x="360" y="304" width="72" height="40" rx="6" fill="#10b981" opacity="0.85"/>
  <!-- Grid cells - row 4 -->
  <rect x="96"  y="360" width="72" height="56" rx="6" fill="#3b82f6" opacity="0.85"/>
  <rect x="184" y="360" width="72" height="56" rx="6" fill="#ec4899" opacity="0.85"/>
  <rect x="272" y="360" width="72" height="56" rx="6" fill="#10b981" opacity="0.85"/>
  <rect x="360" y="360" width="72" height="56" rx="6" fill="#f59e0b" opacity="0.85"/>
  <!-- Calendar title dots in header -->
  <circle cx="160" cy="116" r="8" fill="rgba(255,255,255,0.6)"/>
  <circle cx="256" cy="116" r="8" fill="rgba(255,255,255,0.9)"/>
  <circle cx="352" cy="116" r="8" fill="rgba(255,255,255,0.6)"/>
</svg>
